<?xml version="1.0" encoding="utf-8"?>
<!-- Generator: Adobe Illustrator 25.0.1, SVG Export Plug-In . SVG Version: 6.00 Build 0)  -->
<svg version="1.1" id="Layer_1" xmlns="http://www.w3.org/2000/svg" xmlns:xlink="http://www.w3.org/1999/xlink" x="0px" y="0px"
	 viewBox="0 0 440.3 83.2" style="enable-background:new 0 0 440.3 83.2;" xml:space="preserve">
<style type="text/css">
	.st0{display:none;}
	.st1{display:inline;fill:#4158A7;}
	.st2{font-family:'BublontFilledRegular';}
	.st3{font-size:105.2179px;}
	.st4{letter-spacing:-2;}
	.st5{letter-spacing:-4;}
	.st6{letter-spacing:-8;}
	.st7{fill:#4158A7;}
	.st8{display:inline;}
	.st9{fill:#F1B21D;}
	.st10{fill:#72CAC8;}
</style>
<text transform="matrix(1 0 0 1 -4.2091 55.0567)" class="st0"><tspan x="0" y="0" class="st1 st2 st3">n</tspan><tspan x="41.5" y="0" class="st1 st2 st3 st4">ei</tspan><tspan x="92" y="0" class="st1 st2 st3 st5">g</tspan><tspan x="131.1" y="0" class="st1 st2 st3">hbor</tspan><tspan x="281.8" y="0" class="st1 st2 st3 st6"> </tspan><tspan x="296.8" y="0" class="st1 st2 st3 st4">c</tspan><tspan x="328.4" y="0" class="st1 st2 st3">h</tspan><tspan x="370.5" y="0" class="st1 st2 st3 st5">a</tspan><tspan x="403.6" y="0" class="st1 st2 st3">t</tspan></text>
<g>
	<path class="st7" d="M30.9,54.8c-0.9,1-2,1.5-3.3,1.5c-1.3,0-2.3-0.4-3.1-1.2c-2.1-2.2-2-6.7-1.9-11.1c0-0.9,0-1.7,0-2.5
		c0-2.2-2.4-4.4-4.9-4.4c-2.4,0-4.9,2.2-4.9,4.4c0,3.6-0.1,7.4-1,10.2c-1,3.1-2.8,4.7-5.4,4.7c-2.6,0-4.4-1.9-5.4-5.5
		C0.1,47.7,0,43.9,0,41c0-2.2,0.3-5.8,1-8.8c1.1-4.3,2.9-6.5,5.3-6.5c1.8,0,3.3,1.3,4.4,3.9c2.8-2.5,6-3.9,9.2-3.9
		c4.1,0,7.6,1.6,10.2,4.5c2.4,2.8,3.7,6.6,3.7,10.8C33.7,41.6,34.3,51.1,30.9,54.8z"/>
	<path class="st7" d="M67.9,52.5c-1.8,2.9-7.4,4.5-12.1,4.5c-0.4,0-0.8,0-1.2,0c-1.1-0.1-5-0.5-8.7-2.9c-1.8-1.2-3.3-2.7-4.3-4.4
		c-1.3-2.1-2-4.5-2.1-7.3l0,0c0-11.3,6-15.1,11-16.3c3.6-0.8,9.2-0.8,13,2c2.4,1.7,3.7,4.1,4.1,7.2l0,0.1c0,1.9-0.7,3.6-2.1,5
		c-4.2,4.1-13.2,4.5-16,4.6c0.4,1.3,1.8,3.9,6.4,3.9c1.8,0,3.4-0.8,4.9-1.6c2.4-1.2,4.9-2.5,7.1,1l0,0
		C68.7,49.7,68.7,51.2,67.9,52.5z M58.2,35.6c0.1-0.2,0.2-0.4,0.1-0.4c-0.4-0.8-2.5-2-4.9-1.5c-2.1,0.4-3.5,2.1-3.6,3.5
		C55.2,37.8,57.6,36.5,58.2,35.6z"/>
	<path class="st7" d="M73.1,15.7c0-3.5,2.8-6.3,6.3-6.3s6.3,2.8,6.3,6.3c0,3.5-2.8,6.3-6.3,6.3S73.1,19.2,73.1,15.7z M86.6,42.4
		c0,3.7-0.1,7.5-0.9,10.4c-0.9,3.3-2.7,5-5.4,5c-2.6,0-4.4-1.9-5.4-5.5c-0.8-3.1-0.9-6.9-0.9-9.8c0-2.2,0.3-5.8,1-8.8
		c1.1-4.3,2.9-6.5,5.3-6.5c2.3,0,4.1,2.1,5.2,6.4C86.3,36.6,86.6,40.2,86.6,42.4z"/>
	<path class="st7" d="M125.5,56.8l0,1.2l-0.1,0c-0.3,7.5-1.5,13.1-3.8,17.2c-2.9,5.3-7.6,8-14,8c-4.4,0-8.1-1.6-10.8-4.5
		c-2.5-2.7-3.8-6.4-3.8-10.4v0l0,0c0.6-4.6,3-5.5,4.8-5.4c2.9,0,5.3,2.4,6,5.8c0,0.1,0,0.2,0.1,0.3c0.4,1.9,1.2,3.8,4.2,3.8
		c2.1,0,3.4-0.9,4.3-3c1.1-2.6,1.7-7.2,1.7-14c0,0,0,0,0-0.1c0,0,0,0,0,0c0,0-0.1,0-0.1,0.1c-0.1,0-0.1,0.1-0.2,0.1l0,0
		c0,0-0.1,0-0.1,0c-0.1,0-0.2,0.1-0.3,0.1c0,0-0.1,0-0.1,0l0,0c-0.1,0-0.1,0.1-0.2,0.1l-0.1,0c-0.1,0-0.2,0.1-0.3,0.1l-0.1,0
		c-0.1,0-0.2,0.1-0.2,0.1l-0.1,0c-0.1,0-0.2,0.1-0.3,0.1l-0.1,0c-0.1,0-0.2,0.1-0.3,0.1l0,0c0,0,0,0,0,0l-3.9,1l0.9-0.6
		c-0.9,0-1.7,0-2.6-0.2c-4.1-0.6-7.7-2.7-10-5.8c-2.4-3.2-3.4-7.4-2.7-11.7c0.6-4.1,2.4-7.5,5.3-9.7c3.2-2.5,7.6-3.4,12.7-2.7
		c5.2,0.8,8.5,3.5,10.4,5.7c2.1,2.5,3.5,5.6,3.5,8C125.4,44.4,125.6,50.4,125.5,56.8z M108.7,37.2c-0.2,0-0.5-0.1-0.7-0.1
		c-1,0-2,0.3-2.8,0.9c-1,0.8-1.7,1.9-1.9,3.1s0.1,2.5,0.9,3.5s1.9,1.7,3.1,1.9c2.6,0.4,5-1.4,5.4-4C113.2,40,111.4,37.6,108.7,37.2z
		"/>
	<path class="st7" d="M162.8,55.4c-0.9,1-2,1.5-3.3,1.5c-1.3,0-2.3-0.4-3.1-1.2c-2.1-2.2-2-6.7-1.9-11.1c0-0.9,0-1.7,0-2.5
		c0-2.2-2.4-4.4-4.9-4.4c-2.4,0-4.9,2.2-4.9,4.4c0,3.6-0.1,7.4-1,10.2c-1,3.1-2.8,4.7-5.4,4.7c-2.6,0-4.4-4-5.8-12.2
		c-1-6.3-1.4-13-1.4-15.1c0-10.6,1-24.1,5.8-28.3c1.2-1.1,2.6-1.5,4.2-1.2c2.3,0.3,3.5,3.7,3.8,10.7c0.1,3.4,0,7.6-0.3,12.6
		c0,0,0,0.1,0,0.1c0,0.3,0,0.6-0.1,1c0,0.1,0,0.2,0,0.2c0,0.3,0,0.6-0.1,0.9c0,0.1,0,0.2,0,0.3c0,0.2,0,0.4-0.1,0.6
		c0,0.2,0,0.4,0,0.6c0,0.2,0,0.4,0,0.6c0,0.2,0,0.3,0,0.5c0,0.2,0,0.5-0.1,0.7c2.4-1.8,5-2.7,7.6-2.7c4.1,0,7.6,1.6,10.2,4.5
		c2.4,2.8,3.7,6.6,3.7,10.8C165.6,42.2,166.2,51.7,162.8,55.4z"/>
	<path class="st7" d="M204.9,42c0,4.2-1.3,7.8-3.8,10.4c-2.8,3-7,4.5-12.2,4.5c-6.6,0-11.5-2.9-14.3-8.6c-2.3-4.6-3.4-11-3.4-19.7
		c0-4.1,0.5-11.1,1.8-17.1c1.7-7.6,4.3-11.5,7.8-11.5c1.5,0,2.7,0.5,3.5,1.4c2.5,2.9,1.3,9.7-0.4,19.9c-0.4,2.2-0.8,4.5-1.1,6.9
		c1.7-1,4-1.8,7-1.8c4.2,0,8,1.5,10.8,4.3C203.3,33.6,204.9,37.5,204.9,42z M184.8,41.6c0,2.6,2.1,4.8,4.8,4.8
		c2.6,0,4.8-2.1,4.8-4.8s-2.1-4.8-4.8-4.8C187,36.8,184.8,38.9,184.8,41.6z"/>
	<path class="st7" d="M238.9,41.6c0,8.5-6.9,15.4-15.4,15.4c-8.5,0-15.4-6.9-15.4-15.4s6.9-15.4,15.4-15.4
		C232.1,26.3,238.9,33.2,238.9,41.6z M223.6,36.8c-2.6,0-4.8,2.1-4.8,4.8c0,2.6,2.1,4.8,4.8,4.8c2.6,0,4.8-2.1,4.8-4.8
		C228.4,39,226.2,36.8,223.6,36.8z"/>
	<path class="st7" d="M272.9,38.4c-3.2,2.3-6.3,1.3-7.6,0.3c-0.9-0.7-2-1.1-3-1.1c-2.4,0-4.9,2.2-4.9,4.4c0,3.6-0.1,7.4-1,10.2
		c-1,3.1-2.8,4.7-5.4,4.7c-2.6,0-4.4-1.9-5.4-5.5c-0.8-3.1-0.9-6.8-0.9-9.8c0-2.2,0.3-5.8,1-8.8c1.1-4.3,2.9-6.5,5.3-6.5
		c1.8,0,3.3,1.3,4.4,3.9c2.8-2.5,6-3.9,9.2-3.9c2.4,0,4.6,0.5,6.5,1.6c2.4,1.3,3.9,3.4,4,5.8C275.2,35.6,274.4,37.4,272.9,38.4z"/>
	<path class="st7" d="M321.1,51.8c-1.8,1.9-4.7,3.4-7.8,4c-1.2,0.2-2.4,0.4-3.5,0.4c-2.3,0-4.5-0.5-6.3-1.4l0,0
		c-2.1-1.2-4-2.9-5.3-5c-1.5-2.3-2.3-5.1-2.3-8c0-4.6,1.3-8.4,4-11.4c2.1-2.4,5.1-4.1,8.3-4.7l0,0c2.5-0.4,5.3-0.1,7.8,0.8
		c2.4,0.9,4.4,2.2,5.3,3.8c1,1.5,1,3.1,0.1,4.5c-1.9,2.8-3.8,2.1-6,1.3c-0.8-0.3-1.5-0.5-2.4-0.7c-2.5-0.3-4.6,0.1-6,1.3
		c-1.1,1-1.6,2.4-1.6,4.3c0,2.3,0.5,3.8,1.6,4.7c1.6,1.3,4.2,1,6.5,0.5c0.6-0.2,1.2-0.5,1.9-0.8c1.1-0.5,2.3-1.1,3.5-1.1
		c1.4-0.1,2.6,0.5,3.4,1.7l0,0C323.3,47.8,322.9,49.9,321.1,51.8z"/>
	<path class="st7" d="M360,55.4c-0.9,1-2,1.5-3.3,1.5c-1.3,0-2.3-0.4-3.1-1.2c-2.1-2.2-2-6.7-1.9-11.1c0-0.9,0-1.7,0-2.5
		c0-2.2-2.4-4.4-4.9-4.4c-2.4,0-4.9,2.2-4.9,4.4c0,3.6-0.1,7.4-1,10.2c-1,3.1-2.8,4.7-5.4,4.7c-2.6,0-4.4-4-5.8-12.2
		c-1-6.3-1.4-13-1.4-15.1c0-10.6,1-24.1,5.8-28.3c1.2-1.1,2.6-1.5,4.2-1.2c2.3,0.3,3.5,3.7,3.8,10.7c0.1,3.4,0,7.6-0.3,12.6
		c0,0,0,0.1,0,0.1c0,0.3,0,0.6-0.1,1c0,0.1,0,0.2,0,0.2c0,0.3,0,0.6-0.1,0.9c0,0.1,0,0.2,0,0.3c0,0.2,0,0.4,0,0.6c0,0.2,0,0.4,0,0.6
		c0,0.2,0,0.4,0,0.6c0,0.2,0,0.3,0,0.5c0,0.2,0,0.5-0.1,0.7c2.4-1.8,5-2.7,7.6-2.7c4.1,0,7.6,1.6,10.2,4.5c2.4,2.8,3.7,6.6,3.7,10.8
		C362.9,42.2,363.5,51.7,360,55.4z"/>
	<path class="st7" d="M400.2,41.6c0,3.7-0.1,7.5-0.9,10.4c-0.9,3.3-2.7,5-5.4,5c-1.7,0-3.1-0.8-4.1-2.4c-2.2,1.4-4.6,2.2-6.9,2.2
		c-8.5,0-15.4-6.9-15.4-15.4S374.4,26,382.9,26c2.5,0,5,0.9,7.4,2.5c1-1.5,2.2-2.3,3.6-2.3c2.3,0,4.1,2.1,5.2,6.4
		C399.9,35.7,400.2,39.4,400.2,41.6z M378.1,41.3c0,2.6,2.1,4.8,4.8,4.8s4.8-2.1,4.8-4.8c0-2.6-2.1-4.8-4.8-4.8
		S378.1,38.7,378.1,41.3z"/>
	<path class="st7" d="M438.9,48.4c-1.2,2.4-3,4.4-5.3,5.8c-3,1.9-6.8,2.8-11.3,2.8h0c-6.5-0.2-10.6-3.1-12.6-8.9
		c-1.7-4.9-1.8-11.4-1.6-18.7c-4.9-0.9-7.4-3-7.3-6c0-1.9,0.9-3.3,2.6-4.3c1.2-0.7,3-1.2,5.2-1.5c0-0.2,0-0.4,0-0.6
		c0.1-6.2,0.3-13.2,3.2-16c0.9-0.8,2-1.2,3.2-1.2c1.7,0,3.1,0.6,4,1.7c2.5,2.8,2,8.4,1.4,14.9c0,0.5-0.1,0.9-0.1,1.4
		c0.4,0.1,0.8,0.1,1.2,0.2c0,0,0.1,0,0.1,0c0.1,0,0.1,0,0.2,0c1.8,0.3,3.7,0.8,5.5,1.5c2.8,1.2,4.3,2.7,4.2,4.7
		c-0.1,4.4-7.3,5.5-12,5.8c-0.2,8.6,0.6,13.7,2.4,15.5c0.6,0.6,1.4,0.9,2.4,0.9c1.8,0,3.1-0.8,3.9-1.6c1.1-1,1.6-2.1,1.8-2.8
		c0.5-2.3,1.8-4,3.5-4.8c1.4-0.6,3.1-0.5,4.5,0.2c1.4,0.8,2.3,2.4,2.4,4.6C440.4,44.2,439.9,46.4,438.9,48.4z"/>
</g>
</svg>
