<?xml version="1.0" encoding="utf-8"?>
<!-- Generator: Adobe Illustrator 25.0.1, SVG Export Plug-In . SVG Version: 6.00 Build 0)  -->
<svg version="1.1" id="Layer_1" xmlns="http://www.w3.org/2000/svg" xmlns:xlink="http://www.w3.org/1999/xlink" x="0px" y="0px"
	 viewBox="0 0 82.1 67.6" style="enable-background:new 0 0 82.1 67.6;" xml:space="preserve">
<style type="text/css">
	.st0{fill:#4158A7;}
	.st1{display:none;}
	.st2{display:inline;}
	.st3{fill:#F1B21D;}
	.st4{fill:#72CAC8;}
</style>
<g>
	<g>
		<path class="st0" d="M54.8,59.4c-0.9,1-2,1.5-3.3,1.5c-1.3,0-2.3-0.4-3.1-1.2c-2.1-2.2-2-6.7-1.9-11.1c0-0.9,0-1.7,0-2.5
			c0-2.2-2.4-4.4-4.9-4.4c-2.4,0-4.9,2.2-4.9,4.4c0,3.6-0.1,7.4-1,10.2c-1,3.1-2.8,4.7-5.4,4.7c-2.6,0-4.4-1.9-5.4-5.5
			c-0.8-3.1-0.9-6.9-0.9-9.8c0-2.2,0.3-5.8,1-8.8c1.1-4.3,2.9-6.5,5.3-6.5c1.8,0,3.3,1.3,4.4,3.9c2.8-2.5,6-3.9,9.2-3.9
			c4.1,0,7.6,1.6,10.2,4.5c2.4,2.8,3.7,6.6,3.7,10.8C57.7,46.2,58.2,55.7,54.8,59.4z"/>
	</g>
	<path class="st4" d="M81.8,30.2c-0.5-4.6-4-7.2-7.8-10.1C70.1,17,56.3,9.4,55,8.5c-1.1-0.7-2.2-1.4-3.3-2.1
		c0.7-1.1,0.8-2.1,0.4-2.8c-1-1.8-2.8-2.5-5.3-1.9c-0.3,0.1-1.1,0.4-2.2,0.9c-4.2-1.9-8.1-3.1-10.7-2.3c-1.2,0.4-2.1,1.1-2.6,2.2
		c-0.6,1.3,0.4,3,3.1,5.2c-6.7,3.5-13.7,6.7-16.1,8c-6.3,3.4-11.5,5.9-11.5,5.9c-3.3,2-6.2,3.6-6.4,6.8S0,34.6,0,37.5
		c0,1.7,0.7,15.6,1.5,20.5c1.2,6.5,0.2,9.5,4.7,9.5s4.3-4.1,4.5-6.7c0.4-5.3,0.4-20.4,0.4-25.6c0-1.3,0-2.6-0.1-3.9
		c4.4-1.4,9.5-3.9,13.8-6.3c1.2-0.7,12.3-7.1,18.2-11c1.2,0.8,2.6,1.7,4.1,2.6c3.4,2.1,16.5,10.2,23.6,14.2c0,1.3-0.1,2.8-0.1,4.3
		c0,5.2-1,26.2-0.3,28.4c0.7,2.5,2.5,3.8,5.2,3.8c2.8,0,3.6-3.1,4.7-9.5c0.9-4.9,1.7-16.8,1.7-18.4C82.1,37.3,82.1,33.6,81.8,30.2z"
		/>
</g>
<g class="st1">
	<g class="st2">
		<path class="st3" d="M47.2,16.8C41.1,13,36.6,9.5,36.6,9.5c-4.5-3.1-6.2-5.4-5.4-7.1c0.5-1.1,1.4-1.9,2.6-2.2
			C38.6-1.2,47.9,3.9,55,8.5c1.4,0.9,16.3,10.9,20,14.2c4.9,4.4,6.7,7.4,5.6,9c-1.1,1.8-3,2.3-5.5,1.6
			C72.9,32.7,51.6,19.6,47.2,16.8z"/>
	</g>
	<g class="st2">
		<path class="st3" d="M46.6,1.7C49.2,1.1,51,1.8,52,3.6c1,1.8-1,4.6-6.2,8.7c-3.9,3.1-19.4,12.1-20.9,12.9
			c-7.3,4.1-17,8.6-21.7,6.9c-1.2-0.4-2-1.2-2.5-2.4C0.1,28,2,25.9,6.7,23c0,0,4.7-3.2,11.1-6.6C22.3,13.9,44.4,2.2,46.6,1.7z"/>
	</g>
	<g class="st2">
		<path class="st3" d="M10.5,63.8c-0.7,2.5-2.1,3.8-4.2,3.8c-2,0-3.6-3.1-4.7-9.5C0.7,53.1,0.1,39.2,0,37.5
			c-0.2-8.4,0.4-19,4.1-22.4c0.9-0.8,2-1.2,3.3-1c1.8,0.2,2.8,2.9,3.1,8.3c0,0,0.6,5.7,0.6,12.9C11.2,40.5,11.1,61.6,10.5,63.8z"/>
	</g>
	<g class="st2">
		<path class="st3" d="M70.7,35.3c0-7.2,0.6-12.9,0.6-12.9c0.3-5.5,1.3-8.1,3.1-8.3c1.2-0.2,2.3,0.2,3.3,1c3.7,3.3,4.3,14,4.1,22.4
			c0,1.7-0.7,15.6-1.5,20.5c-1.2,6.5-2.7,9.6-4.7,9.5c-2.1,0-3.5-1.3-4.2-3.8C70.8,61.6,70.7,40.5,70.7,35.3z"/>
	</g>
</g>
</svg>
